ply
format ascii 1.0
comment Synthetic repo-safe point cloud for SfmSandbox Milestone 12
comment Format intentionally stays small for parser and rendering validation
element vertex 21
property float x
property float y
property float z
property uchar red
property uchar green
property uchar blue
end_header
-1.5 0.65 -1.5 255 80 80
-1.0 0.90 -1.2 255 130 80
-0.5 1.10 -1.0 250 180 80
0.0 1.25 -0.8 230 220 90
0.5 1.10 -1.0 170 230 110
1.0 0.90 -1.2 100 230 170
1.5 0.65 -1.5 80 220 255
-1.4 0.80 0.0 230 102 255
-1.0 1.05 0.2 178 128 255
-0.5 1.25 0.4 128 178 255
0.0 1.45 0.6 77 230 255
0.5 1.25 0.4 128 255 204
1.0 1.05 0.2 204 255 128
1.4 0.80 0.0 255 204 102
-1.5 0.65 1.5 80 120 255
-1.0 0.90 1.2 100 180 255
-0.5 1.10 1.0 120 230 230
0.0 1.25 0.8 150 255 180
0.5 1.10 1.0 210 255 140
1.0 0.90 1.2 255 220 110
1.5 0.65 1.5 255 150 100
